<svg version="1.2" xmlns="http://www.w3.org/2000/svg" viewBox="0 0 526 405" width="526" height="405">
	<title>noun-quote-4732613-svg</title>
	<style>
		.s0 { fill: #ffde59 } 
	</style>
	<g id="Layer">
		<path id="Layer" class="s0" d="m296.9 370.1c-9.9-9.8-15.4-23.2-15.4-37.1v-182.2c0.1-35.2 14.1-69 39-93.8 24.8-24.9 58.6-38.9 93.8-39 9.2 0 18.1 3.7 24.7 10.3 6.6 6.5 10.2 15.4 10.2 24.7 0 9.3-3.6 18.2-10.2 24.7-21.5 21.4-34 50.1-35 80.3h52.5c13.9 0 27.3 5.5 37.1 15.4 9.9 9.8 15.4 23.2 15.4 37.1v122.5c0 13.9-5.5 27.3-15.4 37.1-9.8 9.9-23.2 15.4-37.1 15.4h-122.5c-13.9 0-27.3-5.5-37.1-15.4z"/>
		<path id="Layer" class="s0" d="m34.4 370.1c-9.9-9.8-15.4-23.2-15.4-37.1v-182.2c0.1-35.2 14.1-69 39-93.8 24.8-24.9 58.6-38.9 93.8-39 9.2 0 18.1 3.7 24.7 10.3 6.6 6.5 10.2 15.4 10.2 24.7 0 9.3-3.6 18.2-10.2 24.7-21.5 21.4-34 50.1-35 80.3h52.5c13.9 0 27.3 5.5 37.1 15.4 9.9 9.8 15.4 23.2 15.4 37.1v122.5c0 13.9-5.5 27.3-15.4 37.1-9.8 9.9-23.2 15.4-37.1 15.4h-122.5c-13.9 0-27.3-5.5-37.1-15.4z"/>
	</g>
</svg>