<svg version="1.2" xmlns="http://www.w3.org/2000/svg" viewBox="0 0 473 475" width="473" height="475">
	<title>noun-reload-1150435-svg</title>
	<style>
		.s0 { fill: #d259a1 } 
	</style>
	<g id="Layer">
		<path id="Layer" class="s0" d="m176.8 36.7c-1.6-7.6 3.2-15 10.8-16.6 11.3-2.4 22.8-3.8 34.3-4.4 7.7-0.3 14.3 5.6 14.7 13.3 0.4 7.7-5.5 14.3-13.3 14.7-10 0.5-20.1 1.8-30 3.8q-1.4 0.3-2.9 0.3c-6.4 0-12.3-4.5-13.6-11.1zm112.5 404.3c1.5 7.6-3.3 15-10.9 16.5-15.4 3.3-30.8 4.8-46 4.8-90 0-172.9-54.4-207.2-141-35.8-90.3-9.2-191.4 62.9-252.5l-38.3-5.7c-7.7-1.1-12.9-8.3-11.8-15.9 1.1-7.7 8.2-12.9 15.9-11.8l72.1 10.7c3.7 0.5 7 2.5 9.2 5.5 2.3 2.9 3.2 6.7 2.6 10.4l-10.7 72.1c-1 7-7 12-13.8 12q-1 0-2-0.2c-7.7-1.1-13-8.2-11.8-15.9l5.7-39c-62.3 53.6-85.1 141.4-54 219.9 35.1 88.6 128.3 138.7 221.5 119.2 7.5-1.5 15 3.3 16.6 10.9zm138.7-10.7c-1 7-7 12-13.8 12q-1 0-2.1-0.2l-72.1-10.6c-3.7-0.6-7-2.6-9.2-5.6-2.2-2.9-3.2-6.7-2.6-10.3l10.7-72.2c1.1-7.6 8.2-12.9 15.9-11.8 7.6 1.1 12.9 8.3 11.8 15.9l-5.9 39.2c62.4-53.6 85.2-141.4 54.1-220-24.1-60.7-76.7-105.1-140.6-118.9-7.6-1.6-12.4-9.1-10.8-16.6 1.7-7.6 9.1-12.4 16.7-10.7 73.1 15.7 133.2 66.5 160.7 135.9 35.8 90.2 9.2 191.2-62.8 252.4l38.2 5.7c7.7 1.1 12.9 8.2 11.8 15.8z"/>
	</g>
</svg>